# xmcd
#
# Track frame offsets:
#	150
#	18375
#	34875
#	53625
#	71850
#	90075
#	106360
#	121735
#	136060
#	153985
#	171490
#	188688
#
# Disc length: 2775 seconds
#
# Revision: 1
# Processed by: cddbd v1.5.2PL0 Copyright (c) Steve Scherf et al.
# Submitted via: EasyCDDAExtractor 15.3.0.1
#
DISCID=940ad50c
DTITLE=Pandora - En El Camino
DYEAR=2013
DGENRE=Latin
TTITLE0=No Te Vayas
TTITLE1=Cancion Desesperada
TTITLE2=Queda
TTITLE3=Si Te Vas Estoy Mejor
TTITLE4=Se Solicita Un Amor
TTITLE5=Hubo Una Vez
TTITLE6=Quien Eres
TTITLE7=Desepcionada
TTITLE8=No Te Pido
TTITLE9=Cuando Se Ama Como Tu
TTITLE10=Tu Amor Me Desespera
TTITLE11=De Que Me Sirve La Vida, Ojala Medley (Pandora Con Samo)
EXTD=
EXTT0=
EXTT1=
EXTT2=
EXTT3=
EXTT4=
EXTT5=
EXTT6=
EXTT7=
EXTT8=
EXTT9=
EXTT10=
EXTT11=
PLAYORDER=
